<?xml version="1.0" encoding="UTF-8" standalone="no"?>
<!-- Generator: Adobe Illustrator 18.0.0, SVG Export Plug-In . SVG Version: 6.00 Build 0)  -->

<svg
   xmlns:dc="http://purl.org/dc/elements/1.1/"
   xmlns:cc="http://creativecommons.org/ns#"
   xmlns:rdf="http://www.w3.org/1999/02/22-rdf-syntax-ns#"
   xmlns:svg="http://www.w3.org/2000/svg"
   xmlns="http://www.w3.org/2000/svg"
   xmlns:sodipodi="http://sodipodi.sourceforge.net/DTD/sodipodi-0.dtd"
   xmlns:inkscape="http://www.inkscape.org/namespaces/inkscape"
   version="1.1"
   id="Capa_1"
   x="0px"
   y="0px"
   viewBox="0 0 350 350"
   style="enable-background:new 0 0 350 350;"
   xml:space="preserve"
   inkscape:version="0.48.4 r9939"
   width="100%"
   height="100%"
   sodipodi:docname="play.svg"><metadata
     id="metadata39"><rdf:RDF><cc:Work
         rdf:about=""><dc:format>image/svg+xml</dc:format><dc:type
           rdf:resource="http://purl.org/dc/dcmitype/StillImage" /></cc:Work></rdf:RDF></metadata><defs
     id="defs37"><filter
       id="filter3544"
       style="color-interpolation-filters:sRGB;"
       inkscape:label="Drop Shadow"><feFlood
         id="feFlood3546"
         flood-opacity="1"
         flood-color="rgb(0,0,0)"
         result="flood" /><feComposite
         id="feComposite3548"
         in2="SourceGraphic"
         in="flood"
         operator="in"
         result="composite1" /><feGaussianBlur
         id="feGaussianBlur3550"
         in="composite"
         stdDeviation="2"
         result="blur" /><feOffset
         id="feOffset3552"
         dx="0"
         dy="0"
         result="offset" /><feComposite
         id="feComposite3554"
         in2="offset"
         in="SourceGraphic"
         operator="over"
         result="composite2" /></filter></defs><sodipodi:namedview
     pagecolor="#ffffff"
     bordercolor="#666666"
     borderopacity="1"
     objecttolerance="10"
     gridtolerance="10"
     guidetolerance="10"
     inkscape:pageopacity="0"
     inkscape:pageshadow="2"
     inkscape:window-width="1535"
     inkscape:window-height="1176"
     id="namedview35"
     showgrid="false"
     inkscape:zoom="1.907168"
     inkscape:cx="129.65014"
     inkscape:cy="82.248115"
     inkscape:window-x="65"
     inkscape:window-y="24"
     inkscape:window-maximized="1"
     inkscape:current-layer="Capa_1" /><path
     d="M 175,8.75 C 83.17585,8.75 8.75,83.17585 8.75,175 8.75,266.8232 83.17585,341.25 175,341.25 266.8232,341.25 341.25,266.8232 341.25,175 341.25,83.17585 266.8232,8.75 175,8.75 z m 79.5511,179.5975 -99.1667,68.2214 c -2.7588,1.88955 -5.9698,2.8557 -9.18935,2.8557 -2.5916,0 -5.1642,-0.6156 -7.5335,-1.85345 C 133.3368,254.7544 129.9928,249.233 129.9928,243.2233 V 106.7786 c 0,-6.0097 3.344,-11.53205 8.66875,-14.3488 5.32475,-2.793 11.75815,-2.40825 16.72285,1.00225 l 99.1667,68.22045 c 4.38805,3.021 7.01765,8.01895 7.01765,13.3475 0,5.32855 -2.62865,10.3265 -7.01765,13.3475 z"
     id="path3"
     inkscape:connector-curvature="0"
     style="filter:url(#filter3544)" /><g
     id="g5" /><g
     id="g7" /><g
     id="g9" /><g
     id="g11" /><g
     id="g13" /><g
     id="g15" /><g
     id="g17" /><g
     id="g19" /><g
     id="g21" /><g
     id="g23" /><g
     id="g25" /><g
     id="g27" /><g
     id="g29" /><g
     id="g31" /><g
     id="g33" /><path
     style="fill:#ffffff;fill-opacity:1"
     d="m 141.49883,263.6729 c -3.41746,-0.72594 -6.10753,-2.12673 -8.60057,-4.47854 -2.47518,-2.33496 -3.79482,-4.60696 -4.89502,-8.42767 l -0.40036,-1.39036 -0.0573,-73.04025 c -0.0382,-48.63844 0.006,-73.62862 0.13128,-74.80138 0.24474,-2.285532 0.60152,-3.608682 1.47656,-5.475956 1.82315,-3.890512 4.59598,-6.661629 8.43038,-8.425193 2.63723,-1.212942 3.52453,-1.387436 7.06652,-1.389671 2.49992,-0.0016 3.38145,0.06684 4.26378,0.330932 1.8287,0.547353 3.37149,1.202328 4.62296,1.962621 1.83744,1.11628 105.35322,72.372287 106.59955,73.378747 2.89182,2.33525 5.13443,6.31001 5.85009,10.36856 0.2904,1.64694 0.14538,5.28582 -0.27153,6.81312 -0.897,3.28601 -2.56043,6.10663 -4.89064,8.29287 -1.91271,1.79453 -106.24635,73.63288 -108.65469,74.81358 -2.35913,1.15658 -4.08549,1.55717 -7.05606,1.63733 -1.58081,0.0427 -2.91236,-0.0195 -3.61494,-0.16874 l 0,0 z"
     id="path3024"
     inkscape:connector-curvature="0" /></svg>