# Blender v2.73 (sub 0) OBJ File: ''
# www.blender.org
o Cube_Cube.001
v -1.000000 -0.999999 -1.000001
v -1.000000 1.000001 -0.999999
v -1.000000 0.999999 1.000001
v 1.000000 1.000001 -0.999999
v 1.000000 -0.999999 -1.000001
v 1.000000 -1.000001 0.999999
v -1.000000 -1.000001 0.999999
v 1.000000 0.999999 1.000001
vn 1.000000 0.000000 0.000000
vn -1.000000 0.000000 0.000000
vn 0.000000 -0.000000 1.000000
vn 0.000000 0.000000 -1.000000
s off
f 1//1 2//1 3//1
f 4//2 5//2 6//2
f 2//3 1//3 4//3
f 6//4 7//4 3//4
f 7//1 1//1 3//1
f 8//2 4//2 6//2
f 4//3 1//3 5//3
f 8//4 6//4 3//4
